%TF.GenerationSoftware,KiCad,Pcbnew,10.0.4*%
%TF.CreationDate,2026-07-17T15:21:22-03:00*%
%TF.ProjectId,Placa_de_prueba,506c6163-615f-4646-955f-707275656261,rev?*%
%TF.SameCoordinates,Original*%
%TF.FileFunction,Copper,L2,Bot*%
%TF.FilePolarity,Positive*%
%FSLAX46Y46*%
G04 Gerber Fmt 4.6, Leading zero omitted, Abs format (unit mm)*
G04 Created by KiCad (PCBNEW 10.0.4) date 2026-07-17 15:21:22*
%MOMM*%
%LPD*%
G01*
G04 APERTURE LIST*
%TA.AperFunction,ComponentPad*%
%ADD10C,1.530000*%
%TD*%
%TA.AperFunction,ComponentPad*%
%ADD11R,1.530000X1.530000*%
%TD*%
%TA.AperFunction,ComponentPad*%
%ADD12C,1.778000*%
%TD*%
%TA.AperFunction,ComponentPad*%
%ADD13R,1.778000X1.778000*%
%TD*%
%TA.AperFunction,ComponentPad*%
%ADD14C,3.200000*%
%TD*%
%TA.AperFunction,ComponentPad*%
%ADD15C,1.400000*%
%TD*%
%TA.AperFunction,ComponentPad*%
%ADD16C,1.524000*%
%TD*%
%TA.AperFunction,ComponentPad*%
%ADD17R,1.524000X1.524000*%
%TD*%
%TA.AperFunction,Conductor*%
%ADD18C,1.200000*%
%TD*%
%TA.AperFunction,Conductor*%
%ADD19C,0.200000*%
%TD*%
G04 APERTURE END LIST*
D10*
%TO.P,REF\u002A\u002A,J1_22*%
%TO.N,N/C*%
X96140000Y-119340000D03*
%TO.P,REF\u002A\u002A,J3_22*%
X119000000Y-119340000D03*
%TO.P,REF\u002A\u002A,J1_21*%
X96140000Y-116800000D03*
%TO.P,REF\u002A\u002A,J1_20*%
X96140000Y-114260000D03*
%TO.P,REF\u002A\u002A,J1_19*%
X96140000Y-111720000D03*
%TO.P,REF\u002A\u002A,J1_18*%
X96140000Y-109180000D03*
%TO.P,REF\u002A\u002A,J1_17*%
X96140000Y-106640000D03*
%TO.P,REF\u002A\u002A,J1_16*%
X96140000Y-104100000D03*
%TO.P,REF\u002A\u002A,J1_15*%
X96140000Y-101560000D03*
%TO.P,REF\u002A\u002A,J1_14*%
X96140000Y-99020000D03*
%TO.P,REF\u002A\u002A,J1_13*%
X96140000Y-96480000D03*
%TO.P,REF\u002A\u002A,J1_12*%
X96140000Y-93940000D03*
%TO.P,REF\u002A\u002A,J1_11*%
X96140000Y-91400000D03*
%TO.P,REF\u002A\u002A,J1_10*%
X96140000Y-88860000D03*
%TO.P,REF\u002A\u002A,J1_9*%
X96140000Y-86320000D03*
%TO.P,REF\u002A\u002A,J1_8*%
X96140000Y-83780000D03*
%TO.P,REF\u002A\u002A,J1_7*%
X96140000Y-81240000D03*
%TO.P,REF\u002A\u002A,J1_6*%
X96140000Y-78700000D03*
%TO.P,REF\u002A\u002A,J1_5*%
X96140000Y-76160000D03*
%TO.P,REF\u002A\u002A,J1_4*%
X96140000Y-73620000D03*
%TO.P,REF\u002A\u002A,J1_3*%
X96140000Y-71080000D03*
%TO.P,REF\u002A\u002A,J1_2*%
X96140000Y-68540000D03*
D11*
%TO.P,REF\u002A\u002A,J1_1*%
X96140000Y-66000000D03*
D10*
%TO.P,REF\u002A\u002A,J3_21*%
X119000000Y-116800000D03*
%TO.P,REF\u002A\u002A,J3_20*%
X119000000Y-114260000D03*
%TO.P,REF\u002A\u002A,J3_19*%
X119000000Y-111720000D03*
%TO.P,REF\u002A\u002A,J3_18*%
X119000000Y-109180000D03*
%TO.P,REF\u002A\u002A,J3_17*%
X119000000Y-106640000D03*
%TO.P,REF\u002A\u002A,J3_16*%
X119000000Y-104100000D03*
%TO.P,REF\u002A\u002A,J3_15*%
X119000000Y-101560000D03*
%TO.P,REF\u002A\u002A,J3_14*%
X119000000Y-99020000D03*
%TO.P,REF\u002A\u002A,J3_13*%
X119000000Y-96480000D03*
%TO.P,REF\u002A\u002A,J3_12*%
X119000000Y-93940000D03*
%TO.P,REF\u002A\u002A,J3_11*%
X119000000Y-91400000D03*
%TO.P,REF\u002A\u002A,J3_10*%
X119000000Y-88860000D03*
%TO.P,REF\u002A\u002A,J3_9*%
X119000000Y-86320000D03*
%TO.P,REF\u002A\u002A,J3_8*%
X119000000Y-83780000D03*
%TO.P,REF\u002A\u002A,J3_7*%
X119000000Y-81240000D03*
%TO.P,REF\u002A\u002A,J3_6*%
X119000000Y-78700000D03*
%TO.P,REF\u002A\u002A,J3_5*%
X119000000Y-76160000D03*
%TO.P,REF\u002A\u002A,J3_4*%
X119000000Y-73620000D03*
%TO.P,REF\u002A\u002A,J3_3*%
X119000000Y-71080000D03*
%TO.P,REF\u002A\u002A,J3_2*%
X119000000Y-68540000D03*
%TO.P,REF\u002A\u002A,J3_1*%
X119000000Y-66000000D03*
%TD*%
D12*
%TO.P,REF\u002A\u002A,6*%
%TO.N,N/C*%
X80500000Y-95460000D03*
%TO.P,REF\u002A\u002A,7*%
X80500000Y-98000000D03*
%TO.P,REF\u002A\u002A,8*%
X80500000Y-100540000D03*
%TO.P,REF\u002A\u002A,9*%
X80500000Y-103080000D03*
%TO.P,REF\u002A\u002A,10*%
X80500000Y-105620000D03*
%TO.P,REF\u002A\u002A,5*%
X80500000Y-92920000D03*
%TO.P,REF\u002A\u002A,4*%
X80500000Y-90380000D03*
%TO.P,REF\u002A\u002A,3*%
X80500000Y-87840000D03*
%TO.P,REF\u002A\u002A,2*%
X80500000Y-85300000D03*
D13*
%TO.P,REF\u002A\u002A,1*%
X80500000Y-82760000D03*
D14*
%TO.P,REF\u002A\u002A,P1*%
X67800000Y-105620000D03*
%TO.P,REF\u002A\u002A,P2*%
X67800000Y-82760000D03*
%TD*%
D15*
%TO.P,REF\u002A\u002A,1*%
%TO.N,N/C*%
X137190000Y-72000000D03*
%TO.P,REF\u002A\u002A,2*%
X144810000Y-72000000D03*
%TD*%
D16*
%TO.P,REF\u002A\u002A,JP1_1*%
%TO.N,N/C*%
X148840000Y-81250000D03*
%TO.P,REF\u002A\u002A,JP1_2*%
X151380000Y-81250000D03*
%TO.P,REF\u002A\u002A,JP1_3*%
X153920000Y-81250000D03*
D17*
%TO.P,REF\u002A\u002A,JP3_1*%
X134870000Y-91410000D03*
D16*
%TO.P,REF\u002A\u002A,JP3_2*%
X134870000Y-93950000D03*
%TO.P,REF\u002A\u002A,JP3_3*%
X134870000Y-96490000D03*
%TO.P,REF\u002A\u002A,JP3_4*%
X134870000Y-99030000D03*
%TO.P,REF\u002A\u002A,JP3_5*%
X134870000Y-101570000D03*
%TO.P,REF\u002A\u002A,JP3_6*%
X134870000Y-104110000D03*
%TD*%
%TO.N,*%
D18*
X146500000Y-73000000D02*
X145500000Y-72000000D01*
X146500000Y-73500000D02*
X146500000Y-73000000D01*
X146500000Y-73500000D02*
X146500000Y-91000000D01*
X146500000Y-72500000D02*
X146500000Y-73500000D01*
X145500000Y-72000000D02*
X146000000Y-72000000D01*
X146500000Y-71000000D02*
X145500000Y-72000000D01*
X146500000Y-71000000D02*
X146500000Y-71500000D01*
X134870000Y-73130000D02*
X136000000Y-72000000D01*
X134870000Y-73500000D02*
X134870000Y-73130000D01*
X134870000Y-73500000D02*
X134870000Y-72500000D01*
X134870000Y-70870000D02*
X136000000Y-72000000D01*
X136000000Y-72000000D02*
X134870000Y-72000000D01*
X144810000Y-72000000D02*
X145500000Y-72000000D01*
X146500000Y-71500000D02*
X146500000Y-72500000D01*
D19*
X146000000Y-72000000D02*
X146500000Y-71500000D01*
D18*
X134870000Y-72000000D02*
X134870000Y-70870000D01*
X137190000Y-72000000D02*
X136000000Y-72000000D01*
X134870000Y-72500000D02*
X134870000Y-72000000D01*
X134870000Y-70870000D02*
X130000000Y-66000000D01*
X134870000Y-91410000D02*
X134870000Y-73500000D01*
D19*
X135370000Y-72000000D02*
X134870000Y-72500000D01*
D18*
X130000000Y-66000000D02*
X119000000Y-66000000D01*
X88000000Y-102000000D02*
X84380000Y-105620000D01*
X91960000Y-68540000D02*
X88000000Y-72500000D01*
X88000000Y-72500000D02*
X88000000Y-102000000D01*
X84380000Y-105620000D02*
X80500000Y-105620000D01*
X96140000Y-68540000D02*
X91960000Y-68540000D01*
X102480000Y-99020000D02*
X96140000Y-99020000D01*
X102500000Y-99000000D02*
X102480000Y-99020000D01*
X75000000Y-128000000D02*
X100500000Y-128000000D01*
X107500000Y-104000000D02*
X102500000Y-99000000D01*
X66000000Y-119000000D02*
X75000000Y-128000000D01*
X66000000Y-102500000D02*
X66000000Y-119000000D01*
X70500000Y-98000000D02*
X66000000Y-102500000D01*
X107500000Y-121000000D02*
X107500000Y-104000000D01*
X80500000Y-98000000D02*
X70500000Y-98000000D01*
X100500000Y-128000000D02*
X107500000Y-121000000D01*
X73540000Y-100540000D02*
X80500000Y-100540000D01*
X73500000Y-100500000D02*
X73540000Y-100540000D01*
X70000000Y-104000000D02*
X73500000Y-100500000D01*
X76500000Y-124000000D02*
X70000000Y-117500000D01*
X70000000Y-117500000D02*
X70000000Y-104000000D01*
X98500000Y-124000000D02*
X76500000Y-124000000D01*
X102500000Y-120000000D02*
X98500000Y-124000000D01*
X102500000Y-104500000D02*
X102500000Y-120000000D01*
X99560000Y-101560000D02*
X102500000Y-104500000D01*
X96140000Y-101560000D02*
X99560000Y-101560000D01*
X79660000Y-119340000D02*
X96140000Y-119340000D01*
X75500000Y-115500000D02*
X79500000Y-119500000D01*
X75500000Y-105000000D02*
X75500000Y-115500000D01*
X79500000Y-119500000D02*
X79660000Y-119340000D01*
X77420000Y-103080000D02*
X75500000Y-105000000D01*
X80500000Y-103080000D02*
X77420000Y-103080000D01*
X121340000Y-76160000D02*
X119000000Y-76160000D01*
X123500000Y-96000000D02*
X123500000Y-78000000D01*
X129070000Y-101570000D02*
X123500000Y-96000000D01*
X123500000Y-78000000D02*
X121500000Y-76000000D01*
X134870000Y-101570000D02*
X129070000Y-101570000D01*
X121500000Y-76000000D02*
X121340000Y-76160000D01*
X128000000Y-96000000D02*
X128000000Y-77500000D01*
X131030000Y-99030000D02*
X128000000Y-96000000D01*
X128000000Y-77500000D02*
X124120000Y-73620000D01*
X134870000Y-99030000D02*
X131030000Y-99030000D01*
X124120000Y-73620000D02*
X119000000Y-73620000D01*
X140990000Y-96490000D02*
X134870000Y-96490000D01*
X141000000Y-96500000D02*
X140990000Y-96490000D01*
X146500000Y-91000000D02*
X141000000Y-96500000D01*
X146500000Y-69000000D02*
X146500000Y-71000000D01*
X82000000Y-59000000D02*
X136500000Y-59000000D01*
X74500000Y-66500000D02*
X82000000Y-59000000D01*
X74500000Y-87000000D02*
X74500000Y-66500000D01*
X77880000Y-90380000D02*
X74500000Y-87000000D01*
X136500000Y-59000000D02*
X146500000Y-69000000D01*
X80500000Y-90380000D02*
X77880000Y-90380000D01*
X141000000Y-69000000D02*
X134500000Y-62500000D01*
X134500000Y-62500000D02*
X99640000Y-62500000D01*
X141000000Y-91500000D02*
X141000000Y-69000000D01*
X99640000Y-62500000D02*
X96140000Y-66000000D01*
X138550000Y-93950000D02*
X141000000Y-91500000D01*
X134870000Y-93950000D02*
X138550000Y-93950000D01*
D19*
X146000000Y-72000000D02*
X146500000Y-72500000D01*
%TD*%
M02*
